<svg width="183" height="15" viewBox="0 0 183 15" fill="none" xmlns="http://www.w3.org/2000/svg">
<path d="M11.58 8.18V1.12H15.4V8.56C15.4 9.28 15.2533 9.98 14.96 10.66C14.6667 11.3267 14.2133 11.9267 13.6 12.46C13 12.9933 12.2333 13.42 11.3 13.74C10.38 14.0467 9.28667 14.2 8.02 14.2C7.1 14.2 6.2 14.1 5.32 13.9C4.44 13.7 3.64667 13.3933 2.94 12.98C2.23333 12.5533 1.66667 12 1.24 11.32C0.813333 10.64 0.593333 9.81333 0.58 8.84H4.24C4.4 9.64 4.8 10.2267 5.44 10.6C6.08 10.96 6.94 11.14 8.02 11.14C8.94 11.14 9.65333 11.0133 10.16 10.76C10.68 10.5067 11.0467 10.1533 11.26 9.7C11.4733 9.24667 11.58 8.74 11.58 8.18ZM27.715 14.32C25.395 14.32 23.4883 14.06 21.995 13.54C20.5017 13.0067 19.3883 12.24 18.655 11.24C17.935 10.24 17.575 9.01333 17.575 7.56C17.575 6.10667 17.935 4.88 18.655 3.88C19.3883 2.88 20.5017 2.12 21.995 1.6C23.4883 1.06667 25.395 0.799999 27.715 0.799999C30.035 0.799999 31.9417 1.06667 33.435 1.6C34.9283 2.12 36.035 2.88 36.755 3.88C37.4883 4.88 37.855 6.10667 37.855 7.56C37.855 9.01333 37.4883 10.24 36.755 11.24C36.035 12.24 34.9283 13.0067 33.435 13.54C31.9417 14.06 30.035 14.32 27.715 14.32ZM27.715 11.28C28.9283 11.28 29.9883 11.16 30.895 10.92C31.8017 10.6667 32.5017 10.2733 32.995 9.74C33.5017 9.19333 33.755 8.46667 33.755 7.56C33.755 6.66667 33.5017 5.94667 32.995 5.4C32.5017 4.85333 31.8017 4.46 30.895 4.22C29.9883 3.96667 28.9283 3.84 27.715 3.84C26.5017 3.84 25.4283 3.96667 24.495 4.22C23.5617 4.46 22.835 4.85333 22.315 5.4C21.795 5.94667 21.535 6.66667 21.535 7.56C21.535 8.46667 21.795 9.19333 22.315 9.74C22.835 10.2733 23.5617 10.6667 24.495 10.92C25.4283 11.16 26.5017 11.28 27.715 11.28ZM39.2341 9.46H43.3141C43.3807 9.83333 43.6207 10.16 44.0341 10.44C44.4474 10.72 44.9941 10.94 45.6741 11.1C46.3541 11.2467 47.1341 11.32 48.0141 11.32C48.8541 11.32 49.5274 11.2667 50.0341 11.16C50.5541 11.0533 50.9274 10.9 51.1541 10.7C51.3807 10.4867 51.4941 10.22 51.4941 9.9C51.4941 9.59333 51.3274 9.36 50.9941 9.2C50.6741 9.02667 50.1207 8.89333 49.3341 8.8C48.5607 8.70667 47.4941 8.62667 46.1341 8.56C45.0941 8.50667 44.1674 8.4 43.3541 8.24C42.5541 8.08 41.8741 7.86 41.3141 7.58C40.7541 7.28667 40.3274 6.92667 40.0341 6.5C39.7407 6.06 39.5941 5.54 39.5941 4.94C39.5941 4.04667 39.8741 3.29333 40.4341 2.68C40.9941 2.06667 41.8341 1.6 42.9541 1.28C44.0874 0.946666 45.4874 0.78 47.1541 0.78C49.6207 0.78 51.5074 1.2 52.8141 2.04C54.1341 2.88 54.7874 4.06667 54.7741 5.6H50.8741C50.8207 4.98667 50.4474 4.53333 49.7541 4.24C49.0741 3.94667 48.1541 3.8 46.9941 3.8C45.8741 3.8 45.0074 3.90667 44.3941 4.12C43.7807 4.32 43.4741 4.67333 43.4741 5.18C43.4741 5.39333 43.5541 5.58 43.7141 5.74C43.8741 5.88667 44.1474 6.01333 44.5341 6.12C44.9341 6.21333 45.4807 6.3 46.1741 6.38C46.8674 6.44667 47.7407 6.51333 48.7941 6.58C49.8874 6.63333 50.8341 6.74 51.6341 6.9C52.4474 7.06 53.1207 7.28 53.6541 7.56C54.1874 7.84 54.5807 8.2 54.8341 8.64C55.1007 9.08 55.2341 9.60667 55.2341 10.22C55.2341 11.1133 54.9741 11.8667 54.4541 12.48C53.9341 13.0933 53.1141 13.56 51.9941 13.88C50.8741 14.1867 49.4207 14.34 47.6341 14.34C46.5141 14.34 45.5074 14.2467 44.6141 14.06C43.7207 13.8867 42.9341 13.6467 42.2541 13.34C41.5741 13.02 41.0074 12.6533 40.5541 12.24C40.1007 11.8133 39.7607 11.3667 39.5341 10.9C39.3207 10.4333 39.2207 9.95333 39.2341 9.46ZM60.3741 6H72.5541V9.02H60.3741V6ZM72.0541 1.12H75.8741V14H72.0541V1.12ZM57.0741 1.12H60.8941V14H57.0741V1.12ZM86.1192 11.62V9H97.2392V11.62H86.1192ZM82.2792 14L89.5992 1.12H93.8192L101.219 14H97.0192L90.6592 2.44H92.7792L86.4592 14H82.2792ZM105.171 11.62V9H116.291V11.62H105.171ZM101.331 14L108.651 1.12H112.871L120.271 14H116.071L109.711 2.44H111.831L105.511 14H101.331ZM121.584 14V1.12H133.704C134.81 1.12 135.79 1.26 136.644 1.54C137.497 1.80667 138.164 2.24667 138.644 2.86C139.137 3.47333 139.384 4.28 139.384 5.28C139.384 5.96 139.264 6.52667 139.024 6.98C138.784 7.43333 138.45 7.79333 138.024 8.06C137.61 8.32667 137.13 8.52667 136.584 8.66C136.037 8.78 135.457 8.86 134.844 8.9L133.984 8.68C135.237 8.69333 136.23 8.76667 136.964 8.9C137.697 9.02 138.224 9.25333 138.544 9.6C138.864 9.93333 139.024 10.4267 139.024 11.08V14H135.184V11.48C135.184 11.0267 135.104 10.68 134.944 10.44C134.784 10.2 134.464 10.0333 133.984 9.94C133.504 9.84667 132.784 9.8 131.824 9.8H125.404V14H121.584ZM125.404 7.1H133.704C134.277 7.1 134.73 6.98 135.064 6.74C135.397 6.48667 135.564 6.11333 135.564 5.62C135.564 5.15333 135.397 4.81333 135.064 4.6C134.73 4.37333 134.277 4.26 133.704 4.26H125.404V7.1ZM151.53 14.32C149.21 14.32 147.303 14.06 145.81 13.54C144.316 13.0067 143.203 12.24 142.47 11.24C141.75 10.24 141.39 9.01333 141.39 7.56C141.39 6.10667 141.75 4.88 142.47 3.88C143.203 2.88 144.316 2.12 145.81 1.6C147.303 1.06667 149.21 0.799999 151.53 0.799999C153.85 0.799999 155.756 1.06667 157.25 1.6C158.743 2.12 159.85 2.88 160.57 3.88C161.303 4.88 161.67 6.10667 161.67 7.56C161.67 9.01333 161.303 10.24 160.57 11.24C159.85 12.24 158.743 13.0067 157.25 13.54C155.756 14.06 153.85 14.32 151.53 14.32ZM151.53 11.28C152.743 11.28 153.803 11.16 154.71 10.92C155.616 10.6667 156.316 10.2733 156.81 9.74C157.316 9.19333 157.57 8.46667 157.57 7.56C157.57 6.66667 157.316 5.94667 156.81 5.4C156.316 4.85333 155.616 4.46 154.71 4.22C153.803 3.96667 152.743 3.84 151.53 3.84C150.316 3.84 149.243 3.96667 148.31 4.22C147.376 4.46 146.65 4.85333 146.13 5.4C145.61 5.94667 145.35 6.66667 145.35 7.56C145.35 8.46667 145.61 9.19333 146.13 9.74C146.65 10.2733 147.376 10.6667 148.31 10.92C149.243 11.16 150.316 11.28 151.53 11.28ZM180.409 10.72L179.069 11.42V1.12H182.889V14H179.069L166.309 4.52L167.649 3.82V14H163.829V1.12H167.649L180.409 10.72Z" fill="white"/>
</svg>