<svg width="136" height="19" viewBox="0 0 136 19" fill="none" xmlns="http://www.w3.org/2000/svg">
<path d="M0.32 5.12H4.02V19H0.32V5.12ZM4.18 0.38V3.02H0.14V0.38H4.18ZM13.5281 15.26C11.8348 15.26 10.3948 15.0733 9.20813 14.7C8.03479 14.3267 7.14146 13.76 6.52812 13C5.91479 12.24 5.60812 11.2667 5.60812 10.08C5.60812 8.90667 5.91479 7.93333 6.52812 7.16C7.14146 6.38667 8.03479 5.81333 9.20813 5.44C10.3948 5.05333 11.8348 4.86 13.5281 4.86C15.2081 4.86 16.6281 5.05333 17.7881 5.44C18.9615 5.81333 19.8548 6.38667 20.4681 7.16C21.0815 7.93333 21.3881 8.90667 21.3881 10.08C21.3881 11.2667 21.0815 12.24 20.4681 13C19.8548 13.76 18.9615 14.3267 17.7881 14.7C16.6281 15.0733 15.2081 15.26 13.5281 15.26ZM13.5281 12.82C14.3681 12.82 15.0881 12.72 15.6881 12.52C16.3015 12.3067 16.7748 12 17.1081 11.6C17.4415 11.1867 17.6081 10.68 17.6081 10.08C17.6081 9.49333 17.4415 8.99333 17.1081 8.58C16.7881 8.15333 16.3215 7.83333 15.7081 7.62C15.1081 7.40667 14.3815 7.3 13.5281 7.3C12.6881 7.3 11.9548 7.40667 11.3281 7.62C10.7015 7.83333 10.2148 8.14667 9.86813 8.56C9.53479 8.97333 9.36813 9.48 9.36813 10.08C9.36813 10.68 9.53479 11.1867 9.86813 11.6C10.2015 12 10.6815 12.3067 11.3081 12.52C11.9348 12.72 12.6748 12.82 13.5281 12.82ZM22.4552 11.58H25.8752C26.0352 11.98 26.3618 12.2867 26.8552 12.5C27.3485 12.7133 28.0285 12.82 28.8952 12.82C29.5352 12.82 30.0152 12.78 30.3352 12.7C30.6552 12.6067 30.8685 12.48 30.9752 12.32C31.0952 12.16 31.1552 11.9867 31.1552 11.8C31.1552 11.5467 31.0485 11.36 30.8352 11.24C30.6218 11.12 30.2752 11.0333 29.7952 10.98C29.3285 10.9267 28.7018 10.88 27.9152 10.84C27.1418 10.7867 26.4352 10.7067 25.7952 10.6C25.1552 10.4933 24.6018 10.34 24.1352 10.14C23.6685 9.92667 23.3018 9.64667 23.0352 9.3C22.7818 8.95333 22.6552 8.52667 22.6552 8.02C22.6552 7.46 22.8152 6.98 23.1352 6.58C23.4685 6.18 23.9152 5.85333 24.4752 5.6C25.0352 5.34667 25.6885 5.16 26.4352 5.04C27.1818 4.92 27.9752 4.86 28.8152 4.86C30.1485 4.86 31.2418 5.02 32.0952 5.34C32.9618 5.64667 33.6018 6.07333 34.0152 6.62C34.4285 7.16667 34.6352 7.78667 34.6352 8.48H31.3352C31.2018 8.05333 30.9552 7.75333 30.5952 7.58C30.2352 7.40667 29.6418 7.32 28.8152 7.32C28.0152 7.32 27.4285 7.40667 27.0552 7.58C26.6818 7.74 26.4952 7.98667 26.4952 8.32C26.4952 8.56 26.5952 8.74667 26.7952 8.88C27.0085 9 27.3618 9.09333 27.8552 9.16C28.3485 9.22667 29.0285 9.28667 29.8952 9.34C30.5352 9.39333 31.1552 9.46667 31.7552 9.56C32.3685 9.65333 32.9152 9.79333 33.3952 9.98C33.8885 10.1667 34.2752 10.44 34.5552 10.8C34.8352 11.1467 34.9752 11.6067 34.9752 12.18C34.9752 12.8733 34.7285 13.4533 34.2352 13.92C33.7418 14.3733 33.0418 14.7133 32.1352 14.94C31.2285 15.1533 30.1552 15.26 28.9152 15.26C27.8218 15.26 26.8885 15.1733 26.1152 15C25.3552 14.8267 24.7285 14.6 24.2352 14.32C23.7418 14.0267 23.3618 13.7133 23.0952 13.38C22.8285 13.0467 22.6485 12.72 22.5552 12.4C22.4618 12.08 22.4285 11.8067 22.4552 11.58ZM47.6577 15V10.44C47.6577 9.86667 47.551 9.38667 47.3377 9C47.1243 8.61333 46.7643 8.32667 46.2577 8.14C45.751 7.94 45.051 7.84 44.1577 7.84C43.5177 7.84 42.911 7.93333 42.3377 8.12C41.7777 8.29333 41.2977 8.52 40.8977 8.8C40.4977 9.06667 40.2177 9.35333 40.0577 9.66L40.0177 8.62C40.0843 8.3 40.251 7.93333 40.5177 7.52C40.7977 7.09333 41.1843 6.68 41.6777 6.28C42.1843 5.86667 42.8043 5.52667 43.5377 5.26C44.2843 4.99333 45.151 4.86 46.1377 4.86C46.831 4.86 47.491 4.94 48.1177 5.1C48.7443 5.24667 49.2977 5.48667 49.7777 5.82C50.271 6.14 50.6577 6.56667 50.9377 7.1C51.2177 7.62 51.3577 8.25333 51.3577 9V15H47.6577ZM36.5177 15V1.12H40.2177V15H36.5177ZM56.067 12.62V10H67.187V12.62H56.067ZM52.227 15L59.547 2.12H63.767L71.167 15H66.967L60.607 3.44H62.727L56.407 15H52.227ZM77.8453 15.24C76.632 15.24 75.5453 15.0333 74.5853 14.62C73.6253 14.1933 72.8653 13.5933 72.3053 12.82C71.7453 12.0467 71.4653 11.1267 71.4653 10.06C71.4653 8.96667 71.7453 8.03333 72.3053 7.26C72.8653 6.48667 73.632 5.89333 74.6053 5.48C75.5786 5.06667 76.6853 4.86 77.9253 4.86C79.2986 4.86 80.452 5.08667 81.3853 5.54C82.3186 5.98 83.0186 6.59333 83.4853 7.38C83.9653 8.16667 84.2053 9.06 84.2053 10.06C84.2053 10.74 84.0653 11.3933 83.7853 12.02C83.5186 12.6333 83.1186 13.1867 82.5853 13.68C82.052 14.16 81.3853 14.54 80.5853 14.82C79.7986 15.1 78.8853 15.24 77.8453 15.24ZM79.1653 12.72C80.072 12.72 80.8786 12.6267 81.5853 12.44C82.292 12.24 82.852 11.9467 83.2653 11.56C83.6786 11.16 83.8853 10.66 83.8853 10.06C83.8853 9.43333 83.6786 8.92667 83.2653 8.54C82.852 8.15333 82.292 7.86667 81.5853 7.68C80.8786 7.49333 80.072 7.4 79.1653 7.4C77.9386 7.4 76.9853 7.63333 76.3053 8.1C75.6253 8.56667 75.2853 9.22 75.2853 10.06C75.2853 10.62 75.4386 11.1 75.7453 11.5C76.0653 11.8867 76.512 12.1867 77.0853 12.4C77.672 12.6133 78.3653 12.72 79.1653 12.72ZM83.8853 5.12H87.5853V15H84.1053C84.1053 15 84.0853 14.86 84.0453 14.58C84.0053 14.2867 83.9653 13.9 83.9253 13.42C83.8986 12.9267 83.8853 12.3933 83.8853 11.82V5.12ZM89.2169 5.12H92.9169V15H89.2169V5.12ZM97.3969 8.04C96.5969 8.04 95.8769 8.15333 95.2369 8.38C94.6102 8.60667 94.0835 8.88 93.6569 9.2C93.2435 9.50667 92.9369 9.81333 92.7369 10.12L92.7169 9.08C92.7435 8.86667 92.8235 8.58667 92.9569 8.24C93.0902 7.89333 93.2769 7.52667 93.5169 7.14C93.7569 6.75333 94.0569 6.38667 94.4169 6.04C94.7902 5.69333 95.2235 5.41333 95.7169 5.2C96.2102 4.97333 96.7702 4.86 97.3969 4.86V8.04ZM106.005 15.26C104.312 15.26 102.872 15.0733 101.685 14.7C100.512 14.3267 99.6186 13.76 99.0053 13C98.392 12.24 98.0853 11.2667 98.0853 10.08C98.0853 8.90667 98.392 7.93333 99.0053 7.16C99.6186 6.38667 100.512 5.81333 101.685 5.44C102.872 5.05333 104.312 4.86 106.005 4.86C107.685 4.86 109.105 5.05333 110.265 5.44C111.439 5.81333 112.332 6.38667 112.945 7.16C113.559 7.93333 113.865 8.90667 113.865 10.08C113.865 11.2667 113.559 12.24 112.945 13C112.332 13.76 111.439 14.3267 110.265 14.7C109.105 15.0733 107.685 15.26 106.005 15.26ZM106.005 12.82C106.845 12.82 107.565 12.72 108.165 12.52C108.779 12.3067 109.252 12 109.585 11.6C109.919 11.1867 110.085 10.68 110.085 10.08C110.085 9.49333 109.919 8.99333 109.585 8.58C109.265 8.15333 108.799 7.83333 108.185 7.62C107.585 7.40667 106.859 7.3 106.005 7.3C105.165 7.3 104.432 7.40667 103.805 7.62C103.179 7.83333 102.692 8.14667 102.345 8.56C102.012 8.97333 101.845 9.48 101.845 10.08C101.845 10.68 102.012 11.1867 102.345 11.6C102.679 12 103.159 12.3067 103.785 12.52C104.412 12.72 105.152 12.82 106.005 12.82ZM115.192 5.12H118.892V15H115.192V5.12ZM124.792 4.86C125.499 4.86 126.166 4.94667 126.792 5.12C127.419 5.28 127.972 5.54667 128.452 5.92C128.932 6.28 129.312 6.76 129.592 7.36C129.872 7.96 130.012 8.7 130.012 9.58V15H126.312V10.12C126.312 9.2 126.079 8.54 125.612 8.14C125.159 7.72667 124.359 7.52 123.212 7.52C122.506 7.52 121.846 7.62667 121.232 7.84C120.619 8.05333 120.092 8.32 119.652 8.64C119.212 8.94667 118.899 9.26 118.712 9.58L118.692 8.7C118.746 8.34 118.912 7.94667 119.192 7.52C119.472 7.08 119.859 6.66 120.352 6.26C120.859 5.84667 121.479 5.51333 122.212 5.26C122.959 4.99333 123.819 4.86 124.792 4.86Z" fill="white"/>
<path d="M135.766 5.36V8.02H131.706V5.36H135.766ZM132.286 17.62L131.966 16.66C132.18 16.46 132.393 16.1733 132.606 15.8C132.82 15.44 132.94 15.0667 132.966 14.68L131.726 14.46V11.78H135.786V13.52C135.786 14.6 135.5 15.4867 134.926 16.18C134.353 16.8867 133.473 17.3667 132.286 17.62Z" fill="#1882FF"/>
</svg>