<svg width="6" height="6" viewBox="0 0 6 6" fill="none" xmlns="http://www.w3.org/2000/svg">
<path d="M0.642857 6C0.466071 6 0.314732 5.93705 0.188839 5.81116C0.0629464 5.68527 0 5.53393 0 5.35714V0.642857C0 0.466071 0.0629464 0.314732 0.188839 0.18884C0.314732 0.0629466 0.466071 0 0.642857 0H3V0.642857H0.642857V5.35714H5.35714V3H6V5.35714C6 5.53393 5.93705 5.68527 5.81116 5.81116C5.68527 5.93705 5.53393 6 5.35714 6H0.642857ZM2.16964 4.28571L1.71429 3.83036L4.90179 0.642857H3.85714V0H6V2.14286H5.35714V1.09821L2.16964 4.28571Z" fill="#1882FF"/>
</svg>
